<?xml version="1.0" encoding="UTF-8"?>
<svg id="bitcoin" xmlns="http://www.w3.org/2000/svg" viewBox="0 0 40 40">
  <path d="M19.9,13.78l-1.07,4.29c1.21.3,4.95,1.53,5.55-.89.63-2.53-3.27-3.09-4.48-3.39Z" fill="#fff"/>
  <path d="M18.29,20.23l-1.18,4.72c1.45.36,5.94,1.8,6.61-.86.69-2.78-3.97-3.5-5.43-3.86Z" fill="#fff"/>
  <path d="M24.73,1.02C14.25-1.59,3.64,4.79,1.03,15.27c-2.61,10.48,3.76,21.09,14.24,23.71,10.48,2.61,21.09-3.76,23.71-14.24,2.61-10.48-3.76-21.1-14.24-23.71ZM28.62,17.21c-.28,1.91-1.34,2.83-2.74,3.15,1.93,1,2.91,2.54,1.97,5.21-1.16,3.31-3.91,3.59-7.57,2.9l-.89,3.56-2.15-.53.88-3.51c-.56-.14-1.12-.28-1.71-.44l-.88,3.53-2.14-.53.89-3.57c-.5-.13-1.01-.26-1.53-.39l-2.79-.7,1.07-2.46s1.58.42,1.56.39c.61.15.88-.25.98-.51l1.4-5.63c.08.02.16.04.23.06-.09-.03-.16-.06-.22-.07l1-4.02c.03-.46-.13-1.03-1-1.25.03-.02-1.56-.39-1.56-.39l.57-2.29,2.96.74h0c.45.12.9.23,1.37.33l.88-3.52,2.15.53-.86,3.46c.58.13,1.16.26,1.72.4l.86-3.43,2.15.53-.88,3.53c2.71.93,4.69,2.33,4.3,4.94Z" fill="#fff"/>
</svg>