<?xml version="1.0" encoding="UTF-8"?>
<svg id="buy-me-coffee" xmlns="http://www.w3.org/2000/svg" viewBox="0 0 40 40">
  <path d="M29.18,11.01h-.02s-.05-.03-.05-.03c.02.02.05.03.08.03Z" fill="#fff"/>
  <path d="M29.51,13.41h-.03s.03,0,.03,0Z" fill="#fff"/>
  <path d="M29.19,11s0,0,0,0c0,0,0,0,0,0,0,0,0,0,0,0Z" fill="#fff"/>
  <path d="M29.18,11.01h0s0,0,0,0Z" fill="#fff"/>
  <path d="M29.49,13.41l.04-.02h.01s.01-.02.01-.02c-.02.01-.05.03-.07.04Z" fill="#fff"/>
  <path d="M29.25,11.06l-.04-.04h-.03s.04.03.06.04Z" fill="#fff"/>
  <path d="M19.68,34.38s-.06.03-.08.06l.02-.02s.04-.03.05-.04Z" fill="#fff"/>
  <path d="M25.24,33.28s-.02-.03-.01.09c0,0,0-.02,0-.03,0-.02,0-.04,0-.06Z" fill="#fff"/>
  <path d="M24.66,34.38s-.06.03-.08.06l.02-.02s.04-.03.05-.04Z" fill="#fff"/>
  <path d="M15.77,34.63s-.05-.03-.08-.04c.02.01.05.02.07.03h.02Z" fill="#fff"/>
  <path d="M14.89,33.79s-.01-.07-.03-.1c.01.03.02.07.03.1h0Z" fill="#fff"/>
  <path d="M20.8,18.72c-1.21.52-2.58,1.1-4.36,1.1-.74,0-1.48-.1-2.2-.3l1.23,12.62c.04.53.28,1.02.67,1.38.39.36.9.56,1.43.56,0,0,1.74.09,2.32.09.63,0,2.5-.09,2.5-.09.53,0,1.04-.2,1.43-.56.39-.36.63-.85.67-1.38l1.32-13.94c-.59-.2-1.18-.33-1.85-.33-1.16,0-2.09.4-3.17.86Z" fill="#fff"/>
  <path d="M10.45,13.34l.02.02h.01s-.02-.01-.03-.02Z" fill="#fff"/>
  <path d="M31.5,12.17l-.19-.93c-.17-.84-.54-1.63-1.4-1.93-.28-.1-.59-.14-.8-.34-.21-.2-.27-.51-.32-.8-.09-.53-.18-1.06-.27-1.59-.08-.45-.14-.97-.35-1.38-.27-.56-.83-.89-1.39-1.1-.29-.11-.58-.2-.88-.27-1.4-.37-2.87-.5-4.31-.58-1.73-.1-3.46-.07-5.18.09-1.28.12-2.63.26-3.85.7-.45.16-.9.36-1.24.7-.42.42-.55,1.08-.25,1.6.22.37.58.64.97.81.51.23,1.03.4,1.57.51,1.51.33,3.07.46,4.61.52,1.71.07,3.41.01,5.11-.17.42-.05.84-.1,1.26-.17.49-.08.81-.72.66-1.17-.17-.54-.64-.74-1.17-.66-.08.01-.16.02-.23.03h-.06c-.18.03-.36.05-.54.07-.37.04-.74.07-1.11.1-.83.06-1.67.08-2.5.09-.82,0-1.64-.02-2.46-.08-.37-.02-.74-.06-1.12-.09-.17-.02-.34-.04-.51-.06l-.16-.02h-.03s-.17-.03-.17-.03c-.34-.05-.68-.11-1.01-.18-.03,0-.06-.03-.09-.05-.02-.03-.03-.06-.03-.1s.01-.07.03-.1c.02-.03.05-.05.09-.05h0c.29-.06.58-.11.88-.16.1-.02.2-.03.3-.05h0c.18-.01.37-.05.55-.07,1.59-.17,3.2-.22,4.8-.17.78.02,1.56.07,2.33.15.17.02.33.04.5.06.06,0,.13.02.19.02l.13.02c.37.06.75.12,1.12.2.55.12,1.25.16,1.5.76.08.19.11.4.16.6l.05.26s0,0,0,.01c.13.6.26,1.21.39,1.81,0,.04,0,.09,0,.14,0,.04-.03.09-.05.12-.03.04-.06.07-.1.09-.04.02-.08.04-.13.05h-.08s-.08.02-.08.02c-.25.03-.5.06-.74.09-.49.06-.98.1-1.47.14-.98.08-1.95.13-2.93.16-.5.01-1,.02-1.5.02-1.99,0-3.97-.12-5.94-.35-.21-.03-.43-.05-.64-.08.17.02-.12-.02-.18-.02-.14-.02-.27-.04-.41-.06-.46-.07-.91-.15-1.36-.23-.55-.09-1.08-.05-1.57.23-.41.22-.74.57-.95.98-.21.44-.28.93-.37,1.4-.1.48-.25.99-.19,1.48.12,1.06.86,1.91,1.92,2.11,1,.18,2,.33,3.01.45,3.95.48,7.95.54,11.92.17.32-.03.65-.06.97-.1.1-.01.2,0,.3.03.1.03.18.09.25.16.07.07.13.16.16.25.03.1.05.2.04.3l-.1.98c-.2,1.97-.4,3.95-.61,5.92-.21,2.07-.42,4.14-.64,6.21-.06.58-.12,1.17-.18,1.75-.06.57-.07,1.17-.18,1.73-.17.89-.78,1.44-1.66,1.64-.81.18-1.63.28-2.46.29-.92,0-1.84-.04-2.75-.03-.98,0-2.18-.08-2.94-.81-.66-.64-.76-1.64-.85-2.51-.12-1.15-.24-2.3-.36-3.44l-.67-6.38-.43-4.13c0-.07-.01-.14-.02-.2-.05-.49-.4-.98-.95-.95-.47.02-1.01.42-.95.95l.32,3.06.66,6.33c.19,1.8.38,3.6.56,5.4.04.34.07.69.11,1.04.21,1.88,1.65,2.9,3.43,3.19,1.04.17,2.11.2,3.16.22,1.35.02,2.72.07,4.05-.17,1.97-.36,3.45-1.68,3.66-3.72.06-.59.12-1.18.18-1.77.2-1.95.4-3.9.6-5.86l.65-6.38.3-2.92c.01-.14.08-.28.17-.39.1-.11.23-.18.37-.21.56-.11,1.1-.3,1.5-.73.64-.68.77-1.57.54-2.47ZM10.28,12.8s0,.07-.01.1c0-.05,0-.1.01-.1ZM10.34,13.23s.02.01.03.04c-.02-.02-.03-.03-.03-.04h0ZM10.39,13.3s.03.05,0,0h0ZM10.5,13.39h0s0,0,0,0c0,0,0,0,0,0h0ZM29.43,13.25c-.2.19-.51.28-.81.33-3.38.5-6.82.76-10.24.64-2.45-.08-4.87-.36-7.3-.7-.24-.03-.49-.08-.66-.25-.31-.33-.16-1-.08-1.39.07-.37.21-.85.65-.9.68-.08,1.47.21,2.14.31.81.12,1.62.22,2.43.3,3.48.32,7.01.27,10.47-.2.63-.08,1.26-.18,1.89-.3.56-.1,1.18-.29,1.51.29.23.39.26.92.23,1.37-.01.19-.1.38-.24.51h0Z" fill="#fff"/>
</svg>