<?xml version="1.0" encoding="UTF-8"?>
<svg id="Layer_3" data-name="Layer 3" xmlns="http://www.w3.org/2000/svg" viewBox="0 0 40 40">
  <path d="M33.86,7.28c-2.55-1.17-5.28-2.03-8.14-2.53-.05,0-.1.01-.13.06-.35.63-.74,1.44-1.01,2.08-3.07-.46-6.13-.46-9.14,0-.27-.66-.68-1.46-1.03-2.08-.03-.05-.08-.07-.13-.06-2.86.49-5.59,1.35-8.14,2.53-.02,0-.04.03-.05.05C.89,15.08-.53,22.63.17,30.1c0,.04.02.07.05.09,3.42,2.51,6.74,4.04,9.99,5.05.05.02.11,0,.14-.05.77-1.05,1.46-2.16,2.04-3.32.03-.07,0-.15-.07-.18-1.09-.41-2.12-.92-3.12-1.49-.08-.05-.09-.16-.01-.21.21-.16.42-.32.62-.49.04-.03.09-.04.13-.02,6.55,2.99,13.63,2.99,20.1,0,.04-.02.09-.01.13.02.2.17.41.33.62.49.07.05.07.17-.01.21-1,.58-2.03,1.07-3.12,1.49-.07.03-.1.11-.07.18.6,1.16,1.29,2.27,2.04,3.32.03.04.09.06.14.05,3.27-1.01,6.58-2.54,10-5.05.03-.02.05-.06.05-.09.83-8.63-1.4-16.12-5.91-22.77-.01-.02-.03-.04-.05-.05ZM13.37,25.55c-1.97,0-3.59-1.81-3.59-4.03s1.59-4.03,3.59-4.03,3.63,1.83,3.59,4.03c0,2.22-1.59,4.03-3.59,4.03ZM26.66,25.55c-1.97,0-3.59-1.81-3.59-4.03s1.59-4.03,3.59-4.03,3.63,1.83,3.59,4.03c0,2.22-1.58,4.03-3.59,4.03Z" fill="#fff"/>
</svg>