<?xml version="1.0" encoding="UTF-8"?>
<svg id="Layer_2" data-name="Layer 2" xmlns="http://www.w3.org/2000/svg" viewBox="0 0 40 40">
  <path d="M20,.42C8.96.42,0,9.41,0,20.5c0,8.87,5.73,16.39,13.68,19.05,1,.19,1.37-.43,1.37-.97,0-.48-.02-1.74-.03-3.42-5.56,1.21-6.74-2.69-6.74-2.69-.91-2.32-2.22-2.94-2.22-2.94-1.82-1.25.13-1.22.13-1.22,2.01.14,3.06,2.07,3.06,2.07,1.78,3.07,4.68,2.18,5.82,1.67.18-1.3.7-2.18,1.27-2.69-4.44-.51-9.11-2.23-9.11-9.92,0-2.19.78-3.98,2.06-5.39-.21-.51-.89-2.55.2-5.31,0,0,1.68-.54,5.5,2.06,1.6-.44,3.31-.67,5.01-.67,1.7.01,3.41.23,5.01.68,3.82-2.6,5.49-2.06,5.49-2.06,1.09,2.76.4,4.8.2,5.31,1.28,1.4,2.05,3.2,2.05,5.39,0,7.71-4.67,9.41-9.13,9.91.72.62,1.36,1.84,1.36,3.72,0,2.69-.03,4.85-.03,5.51,0,.54.36,1.16,1.38.96,7.94-2.66,13.66-10.18,13.66-19.05C40,9.41,31.05.42,20,.42Z" fill="#fff"/>
</svg>