<svg xmlns="http://www.w3.org/2000/svg" viewBox="0 0 2734 2000" preserveAspectRatio="xMidYMid" width="2734" height="2000" style="shape-rendering: auto; display: block; background: transparent;" xmlns:xlink="http://www.w3.org/1999/xlink"><g><defs>
  <filter height="209.20" width="9.20" y="-4.60" x="-4.60" filterUnits="userSpaceOnUse" id="f-77aar7t873j">
    <feGaussianBlur result="blur1" stdDeviation="3.60"></feGaussianBlur>
    <feMorphology result="dilate" in="SourceGraphic" radius="0.90" operator="dilate"></feMorphology>
    <feComponentTransfer result="dark" in="dilate">
    <feFuncR slope="0.33" type="linear"></feFuncR>
    <feFuncG slope="0.33" type="linear"></feFuncG>
    <feFuncB slope="0.33" type="linear"></feFuncB>
    </feComponentTransfer>
    <feGaussianBlur result="blur2" in="dark" stdDeviation="1.80"></feGaussianBlur>
    <feMerge>
      <feMergeNode in="blur1"></feMergeNode>
      <feMergeNode in="blur2"></feMergeNode>
      <feMergeNode in="SourceGraphic"></feMergeNode>
    </feMerge>
  </filter>
</defs><path stroke-width="0.2" stroke="#333333" d="M88.19 0L88.19 2000"></path>
<path filter="url(#f-77aar7t873j)" fill="#22d3ee" d="M0 0L-1 200 A1 1 0 0 0 1 200 Z">
<animateTransform begin="-3.86s" keyTimes="0;1" values="88.19 -209.20;88.19 2000" repeatCount="indefinite" dur="11.11s" type="translate" attributeName="transform"></animateTransform>
</path><path stroke-width="0.2" stroke="#333333" d="M176.39 0L176.39 2000"></path>
<path filter="url(#f-77aar7t873j)" fill="#fb923c" d="M0 0L-1 200 A1 1 0 0 0 1 200 Z">
<animateTransform begin="-7.64s" keyTimes="0;1" values="176.39 -209.20;176.39 2000" repeatCount="indefinite" dur="11.11s" type="translate" attributeName="transform"></animateTransform>
</path><path stroke-width="0.2" stroke="#333333" d="M264.58 0L264.58 2000"></path>
<path filter="url(#f-77aar7t873j)" fill="#db2777" d="M0 0L-1 200 A1 1 0 0 0 1 200 Z">
<animateTransform begin="-7.75s" keyTimes="0;1" values="264.58 -209.20;264.58 2000" repeatCount="indefinite" dur="16.67s" type="translate" attributeName="transform"></animateTransform>
</path><path stroke-width="0.2" stroke="#333333" d="M352.77 0L352.77 2000"></path>
<path filter="url(#f-77aar7t873j)" fill="#ec4899" d="M0 0L-1 200 A1 1 0 0 0 1 200 Z">
<animateTransform begin="-9.33s" keyTimes="0;1" values="352.77 -209.20;352.77 2000" repeatCount="indefinite" dur="11.11s" type="translate" attributeName="transform"></animateTransform>
</path><path stroke-width="0.2" stroke="#333333" d="M440.97 0L440.97 2000"></path>
<path filter="url(#f-77aar7t873j)" fill="#a3e635" d="M0 0L-1 200 A1 1 0 0 0 1 200 Z">
<animateTransform begin="-7.83s" keyTimes="0;1" values="440.97 -209.20;440.97 2000" repeatCount="indefinite" dur="11.11s" type="translate" attributeName="transform"></animateTransform>
</path><path stroke-width="0.2" stroke="#333333" d="M529.16 0L529.16 2000"></path>
<path filter="url(#f-77aar7t873j)" fill="#fb923c" d="M0 0L-1 200 A1 1 0 0 0 1 200 Z">
<animateTransform begin="-3.19s" keyTimes="0;1" values="529.16 -209.20;529.16 2000" repeatCount="indefinite" dur="16.67s" type="translate" attributeName="transform"></animateTransform>
</path><path stroke-width="0.2" stroke="#333333" d="M617.35 0L617.35 2000"></path>
<path filter="url(#f-77aar7t873j)" fill="#dc2626" d="M0 0L-1 200 A1 1 0 0 0 1 200 Z">
<animateTransform begin="-3.27s" keyTimes="0;1" values="617.35 -209.20;617.35 2000" repeatCount="indefinite" dur="11.11s" type="translate" attributeName="transform"></animateTransform>
</path><path stroke-width="0.2" stroke="#333333" d="M705.55 0L705.55 2000"></path>
<path filter="url(#f-77aar7t873j)" fill="#db2777" d="M0 0L-1 200 A1 1 0 0 0 1 200 Z">
<animateTransform begin="-3.71s" keyTimes="0;1" values="705.55 -209.20;705.55 2000" repeatCount="indefinite" dur="16.67s" type="translate" attributeName="transform"></animateTransform>
</path><path stroke-width="0.2" stroke="#333333" d="M793.74 0L793.74 2000"></path>
<path filter="url(#f-77aar7t873j)" fill="#db2777" d="M0 0L-1 200 A1 1 0 0 0 1 200 Z">
<animateTransform begin="-7.69s" keyTimes="0;1" values="793.74 -209.20;793.74 2000" repeatCount="indefinite" dur="11.11s" type="translate" attributeName="transform"></animateTransform>
</path><path stroke-width="0.2" stroke="#333333" d="M881.94 0L881.94 2000"></path>
<path filter="url(#f-77aar7t873j)" fill="#ec4899" d="M0 0L-1 200 A1 1 0 0 0 1 200 Z">
<animateTransform begin="-5.04s" keyTimes="0;1" values="881.94 -209.20;881.94 2000" repeatCount="indefinite" dur="16.67s" type="translate" attributeName="transform"></animateTransform>
</path><path stroke-width="0.2" stroke="#333333" d="M970.13 0L970.13 2000"></path>
<path filter="url(#f-77aar7t873j)" fill="#ec4899" d="M0 0L-1 200 A1 1 0 0 0 1 200 Z">
<animateTransform begin="-3.09s" keyTimes="0;1" values="970.13 -209.20;970.13 2000" repeatCount="indefinite" dur="11.11s" type="translate" attributeName="transform"></animateTransform>
</path><path stroke-width="0.2" stroke="#333333" d="M1058.32 0L1058.32 2000"></path>
<path filter="url(#f-77aar7t873j)" fill="#ea580c" d="M0 0L-1 200 A1 1 0 0 0 1 200 Z">
<animateTransform begin="-8.70s" keyTimes="0;1" values="1058.32 -209.20;1058.32 2000" repeatCount="indefinite" dur="11.11s" type="translate" attributeName="transform"></animateTransform>
</path><path stroke-width="0.2" stroke="#333333" d="M1146.52 0L1146.52 2000"></path>
<path filter="url(#f-77aar7t873j)" fill="#dc2626" d="M0 0L-1 200 A1 1 0 0 0 1 200 Z">
<animateTransform begin="-12.75s" keyTimes="0;1" values="1146.52 -209.20;1146.52 2000" repeatCount="indefinite" dur="16.67s" type="translate" attributeName="transform"></animateTransform>
</path><path stroke-width="0.2" stroke="#333333" d="M1234.71 0L1234.71 2000"></path>
<path filter="url(#f-77aar7t873j)" fill="#d9f99d" d="M0 0L-1 200 A1 1 0 0 0 1 200 Z">
<animateTransform begin="-6.29s" keyTimes="0;1" values="1234.71 -209.20;1234.71 2000" repeatCount="indefinite" dur="11.11s" type="translate" attributeName="transform"></animateTransform>
</path><path stroke-width="0.2" stroke="#333333" d="M1322.90 0L1322.90 2000"></path>
<path filter="url(#f-77aar7t873j)" fill="#d9f99d" d="M0 0L-1 200 A1 1 0 0 0 1 200 Z">
<animateTransform begin="-4.69s" keyTimes="0;1" values="1322.90 -209.20;1322.90 2000" repeatCount="indefinite" dur="16.67s" type="translate" attributeName="transform"></animateTransform>
</path><path stroke-width="0.2" stroke="#333333" d="M1411.10 0L1411.10 2000"></path>
<path filter="url(#f-77aar7t873j)" fill="#dc2626" d="M0 0L-1 200 A1 1 0 0 0 1 200 Z">
<animateTransform begin="-15.59s" keyTimes="0;1" values="1411.10 -209.20;1411.10 2000" repeatCount="indefinite" dur="16.67s" type="translate" attributeName="transform"></animateTransform>
</path><path stroke-width="0.2" stroke="#333333" d="M1499.29 0L1499.29 2000"></path>
<path filter="url(#f-77aar7t873j)" fill="#db2777" d="M0 0L-1 200 A1 1 0 0 0 1 200 Z">
<animateTransform begin="-4.28s" keyTimes="0;1" values="1499.29 -209.20;1499.29 2000" repeatCount="indefinite" dur="33.33s" type="translate" attributeName="transform"></animateTransform>
</path><path stroke-width="0.2" stroke="#333333" d="M1587.48 0L1587.48 2000"></path>
<path filter="url(#f-77aar7t873j)" fill="#d9f99d" d="M0 0L-1 200 A1 1 0 0 0 1 200 Z">
<animateTransform begin="-1.72s" keyTimes="0;1" values="1587.48 -209.20;1587.48 2000" repeatCount="indefinite" dur="33.33s" type="translate" attributeName="transform"></animateTransform>
</path><path stroke-width="0.2" stroke="#333333" d="M1675.68 0L1675.68 2000"></path>
<path filter="url(#f-77aar7t873j)" fill="#dc2626" d="M0 0L-1 200 A1 1 0 0 0 1 200 Z">
<animateTransform begin="-11.74s" keyTimes="0;1" values="1675.68 -209.20;1675.68 2000" repeatCount="indefinite" dur="16.67s" type="translate" attributeName="transform"></animateTransform>
</path><path stroke-width="0.2" stroke="#333333" d="M1763.87 0L1763.87 2000"></path>
<path filter="url(#f-77aar7t873j)" fill="#db2777" d="M0 0L-1 200 A1 1 0 0 0 1 200 Z">
<animateTransform begin="-2.44s" keyTimes="0;1" values="1763.87 -209.20;1763.87 2000" repeatCount="indefinite" dur="11.11s" type="translate" attributeName="transform"></animateTransform>
</path><path stroke-width="0.2" stroke="#333333" d="M1852.06 0L1852.06 2000"></path>
<path filter="url(#f-77aar7t873j)" fill="#ec4899" d="M0 0L-1 200 A1 1 0 0 0 1 200 Z">
<animateTransform begin="-9.54s" keyTimes="0;1" values="1852.06 -209.20;1852.06 2000" repeatCount="indefinite" dur="11.11s" type="translate" attributeName="transform"></animateTransform>
</path><path stroke-width="0.2" stroke="#333333" d="M1940.26 0L1940.26 2000"></path>
<path filter="url(#f-77aar7t873j)" fill="#22d3ee" d="M0 0L-1 200 A1 1 0 0 0 1 200 Z">
<animateTransform begin="-13.97s" keyTimes="0;1" values="1940.26 -209.20;1940.26 2000" repeatCount="indefinite" dur="16.67s" type="translate" attributeName="transform"></animateTransform>
</path><path stroke-width="0.2" stroke="#333333" d="M2028.45 0L2028.45 2000"></path>
<path filter="url(#f-77aar7t873j)" fill="#d9f99d" d="M0 0L-1 200 A1 1 0 0 0 1 200 Z">
<animateTransform begin="-5.33s" keyTimes="0;1" values="2028.45 -209.20;2028.45 2000" repeatCount="indefinite" dur="16.67s" type="translate" attributeName="transform"></animateTransform>
</path><path stroke-width="0.2" stroke="#333333" d="M2116.65 0L2116.65 2000"></path>
<path filter="url(#f-77aar7t873j)" fill="#22d3ee" d="M0 0L-1 200 A1 1 0 0 0 1 200 Z">
<animateTransform begin="-9.15s" keyTimes="0;1" values="2116.65 -209.20;2116.65 2000" repeatCount="indefinite" dur="11.11s" type="translate" attributeName="transform"></animateTransform>
</path><path stroke-width="0.2" stroke="#333333" d="M2204.84 0L2204.84 2000"></path>
<path filter="url(#f-77aar7t873j)" fill="#ec4899" d="M0 0L-1 200 A1 1 0 0 0 1 200 Z">
<animateTransform begin="-12.12s" keyTimes="0;1" values="2204.84 -209.20;2204.84 2000" repeatCount="indefinite" dur="33.33s" type="translate" attributeName="transform"></animateTransform>
</path><path stroke-width="0.2" stroke="#333333" d="M2293.03 0L2293.03 2000"></path>
<path filter="url(#f-77aar7t873j)" fill="#6366f1" d="M0 0L-1 200 A1 1 0 0 0 1 200 Z">
<animateTransform begin="-4.34s" keyTimes="0;1" values="2293.03 -209.20;2293.03 2000" repeatCount="indefinite" dur="16.67s" type="translate" attributeName="transform"></animateTransform>
</path><path stroke-width="0.2" stroke="#333333" d="M2381.23 0L2381.23 2000"></path>
<path filter="url(#f-77aar7t873j)" fill="#d9f99d" d="M0 0L-1 200 A1 1 0 0 0 1 200 Z">
<animateTransform begin="-25.55s" keyTimes="0;1" values="2381.23 -209.20;2381.23 2000" repeatCount="indefinite" dur="33.33s" type="translate" attributeName="transform"></animateTransform>
</path><path stroke-width="0.2" stroke="#333333" d="M2469.42 0L2469.42 2000"></path>
<path filter="url(#f-77aar7t873j)" fill="#ea580c" d="M0 0L-1 200 A1 1 0 0 0 1 200 Z">
<animateTransform begin="-6.38s" keyTimes="0;1" values="2469.42 -209.20;2469.42 2000" repeatCount="indefinite" dur="33.33s" type="translate" attributeName="transform"></animateTransform>
</path><path stroke-width="0.2" stroke="#333333" d="M2557.61 0L2557.61 2000"></path>
<path filter="url(#f-77aar7t873j)" fill="#db2777" d="M0 0L-1 200 A1 1 0 0 0 1 200 Z">
<animateTransform begin="-9.94s" keyTimes="0;1" values="2557.61 -209.20;2557.61 2000" repeatCount="indefinite" dur="11.11s" type="translate" attributeName="transform"></animateTransform>
</path><path stroke-width="0.2" stroke="#333333" d="M2645.81 0L2645.81 2000"></path>
<path filter="url(#f-77aar7t873j)" fill="#ea580c" d="M0 0L-1 200 A1 1 0 0 0 1 200 Z">
<animateTransform begin="-8.85s" keyTimes="0;1" values="2645.81 -209.20;2645.81 2000" repeatCount="indefinite" dur="11.11s" type="translate" attributeName="transform"></animateTransform>
</path><g></g></g><!-- [ldio] generated by https://loading.io --></svg>