<?xml version="1.0" encoding="UTF-8"?>
<svg xmlns="http://www.w3.org/2000/svg" version="1.1" width="500" height="500" viewBox="0 0 500 500"><rect x="0" y="0" width="500" height="500" fill="#ffffff"/><g transform="scale(17.241)"><g transform="translate(0,0)"><path fill-rule="evenodd" d="M9 0L9 1L8 1L8 2L9 2L9 1L10 1L10 2L11 2L11 3L13 3L13 2L14 2L14 4L15 4L15 5L13 5L13 4L11 4L11 5L12 5L12 7L11 7L11 6L10 6L10 3L8 3L8 4L9 4L9 5L8 5L8 7L9 7L9 8L6 8L6 9L7 9L7 10L5 10L5 12L3 12L3 10L4 10L4 9L5 9L5 8L0 8L0 10L2 10L2 12L3 12L3 17L2 17L2 16L1 16L1 17L0 17L0 21L1 21L1 17L2 17L2 19L3 19L3 21L4 21L4 18L5 18L5 17L7 17L7 18L6 18L6 19L5 19L5 21L7 21L7 20L8 20L8 23L9 23L9 24L8 24L8 29L11 29L11 28L12 28L12 29L13 29L13 28L14 28L14 27L15 27L15 26L16 26L16 28L15 28L15 29L16 29L16 28L18 28L18 29L20 29L20 28L21 28L21 29L23 29L23 28L24 28L24 29L25 29L25 28L26 28L26 29L27 29L27 27L28 27L28 28L29 28L29 27L28 27L28 26L26 26L26 24L27 24L27 25L29 25L29 23L27 23L27 22L28 22L28 20L29 20L29 19L28 19L28 18L29 18L29 17L27 17L27 16L29 16L29 15L28 15L28 14L29 14L29 13L27 13L27 14L26 14L26 13L24 13L24 12L26 12L26 11L27 11L27 12L29 12L29 10L26 10L26 8L25 8L25 9L24 9L24 8L23 8L23 9L24 9L24 10L23 10L23 11L22 11L22 12L21 12L21 9L22 9L22 8L21 8L21 5L20 5L20 4L21 4L21 0L19 0L19 1L20 1L20 2L19 2L19 3L18 3L18 5L17 5L17 4L16 4L16 3L17 3L17 2L18 2L18 1L17 1L17 2L16 2L16 3L15 3L15 2L14 2L14 1L13 1L13 0L12 0L12 1L11 1L11 0ZM15 0L15 1L16 1L16 0ZM12 1L12 2L13 2L13 1ZM19 3L19 4L20 4L20 3ZM19 5L19 7L18 7L18 6L17 6L17 7L18 7L18 8L16 8L16 6L15 6L15 7L14 7L14 6L13 6L13 7L12 7L12 8L11 8L11 7L10 7L10 6L9 6L9 7L10 7L10 9L8 9L8 10L7 10L7 11L6 11L6 12L5 12L5 15L4 15L4 16L7 16L7 15L6 15L6 14L8 14L8 13L9 13L9 14L11 14L11 15L12 15L12 16L11 16L11 17L9 17L9 15L8 15L8 18L10 18L10 21L9 21L9 22L10 22L10 21L13 21L13 22L14 22L14 23L15 23L15 24L13 24L13 23L12 23L12 24L11 24L11 23L10 23L10 25L11 25L11 26L10 26L10 27L9 27L9 28L11 28L11 27L12 27L12 28L13 28L13 27L12 27L12 26L15 26L15 24L16 24L16 26L18 26L18 27L19 27L19 25L20 25L20 24L16 24L16 23L17 23L17 22L18 22L18 23L19 23L19 22L18 22L18 21L17 21L17 22L16 22L16 21L14 21L14 19L15 19L15 20L16 20L16 19L15 19L15 18L16 18L16 17L17 17L17 18L18 18L18 19L17 19L17 20L19 20L19 21L20 21L20 20L19 20L19 19L20 19L20 16L19 16L19 15L25 15L25 16L21 16L21 19L26 19L26 18L27 18L27 17L26 17L26 18L24 18L24 17L25 17L25 16L27 16L27 15L26 15L26 14L24 14L24 13L23 13L23 12L24 12L24 11L25 11L25 10L24 10L24 11L23 11L23 12L22 12L22 13L21 13L21 12L19 12L19 11L20 11L20 8L19 8L19 7L20 7L20 5ZM15 8L15 9L14 9L14 10L13 10L13 11L14 11L14 13L15 13L15 15L14 15L14 14L13 14L13 12L12 12L12 11L11 11L11 10L12 10L12 9L11 9L11 10L10 10L10 11L11 11L11 12L9 12L9 13L11 13L11 12L12 12L12 14L13 14L13 15L14 15L14 16L15 16L15 17L16 17L16 16L17 16L17 17L18 17L18 18L19 18L19 16L17 16L17 15L19 15L19 13L18 13L18 12L17 12L17 11L19 11L19 10L16 10L16 8ZM18 8L18 9L19 9L19 8ZM27 8L27 9L28 9L28 8ZM2 9L2 10L3 10L3 9ZM14 10L14 11L15 11L15 12L16 12L16 13L17 13L17 14L18 14L18 13L17 13L17 12L16 12L16 11L15 11L15 10ZM0 11L0 13L1 13L1 11ZM7 11L7 12L6 12L6 13L8 13L8 11ZM20 13L20 14L21 14L21 13ZM0 14L0 15L1 15L1 14ZM15 15L15 16L16 16L16 15ZM12 16L12 17L11 17L11 18L12 18L12 17L13 17L13 16ZM22 17L22 18L23 18L23 17ZM13 18L13 19L11 19L11 20L13 20L13 19L14 19L14 18ZM6 19L6 20L7 20L7 19ZM8 19L8 20L9 20L9 19ZM27 19L27 20L28 20L28 19ZM21 21L21 24L24 24L24 21ZM26 21L26 22L25 22L25 24L26 24L26 22L27 22L27 21ZM15 22L15 23L16 23L16 22ZM22 22L22 23L23 23L23 22ZM12 24L12 25L13 25L13 24ZM22 25L22 26L20 26L20 27L21 27L21 28L23 28L23 27L24 27L24 28L25 28L25 27L26 27L26 26L25 26L25 25ZM0 0L7 0L7 7L0 7ZM1 1L1 6L6 6L6 1ZM2 2L5 2L5 5L2 5ZM22 0L29 0L29 7L22 7ZM23 1L23 6L28 6L28 1ZM24 2L27 2L27 5L24 5ZM0 22L7 22L7 29L0 29ZM1 23L1 28L6 28L6 23ZM2 24L5 24L5 27L2 27Z" fill="#000000"/></g></g></svg>
