<?xml version="1.0" encoding="UTF-8"?>
<svg xmlns="http://www.w3.org/2000/svg" version="1.1" width="500" height="500" viewBox="0 0 500 500"><rect x="0" y="0" width="500" height="500" fill="#ffffff"/><g transform="scale(17.241)"><g transform="translate(0,0)"><path fill-rule="evenodd" d="M9 0L9 1L8 1L8 2L9 2L9 3L8 3L8 4L9 4L9 5L8 5L8 7L9 7L9 8L6 8L6 9L5 9L5 8L0 8L0 9L2 9L2 10L3 10L3 11L2 11L2 12L4 12L4 9L5 9L5 11L7 11L7 10L6 10L6 9L8 9L8 12L6 12L6 13L3 13L3 15L5 15L5 16L6 16L6 17L5 17L5 18L6 18L6 19L4 19L4 18L3 18L3 16L2 16L2 15L1 15L1 14L0 14L0 21L1 21L1 16L2 16L2 18L3 18L3 19L2 19L2 21L3 21L3 20L4 20L4 21L5 21L5 20L6 20L6 21L8 21L8 23L9 23L9 21L8 21L8 20L9 20L9 19L7 19L7 18L6 18L6 17L7 17L7 16L6 16L6 15L8 15L8 13L9 13L9 14L10 14L10 15L9 15L9 16L13 16L13 17L14 17L14 18L13 18L13 19L11 19L11 17L10 17L10 19L11 19L11 20L13 20L13 19L14 19L14 20L15 20L15 21L14 21L14 22L13 22L13 21L11 21L11 22L10 22L10 23L11 23L11 22L12 22L12 23L14 23L14 24L12 24L12 26L11 26L11 24L10 24L10 25L9 25L9 24L8 24L8 29L9 29L9 27L10 27L10 28L12 28L12 29L18 29L18 28L15 28L15 27L20 27L20 28L19 28L19 29L20 29L20 28L22 28L22 29L26 29L26 27L28 27L28 28L29 28L29 27L28 27L28 26L26 26L26 23L27 23L27 25L29 25L29 23L27 23L27 22L28 22L28 20L29 20L29 19L28 19L28 18L29 18L29 17L28 17L28 18L26 18L26 15L27 15L27 16L29 16L29 15L27 15L27 14L26 14L26 13L25 13L25 11L24 11L24 10L23 10L23 11L22 11L22 8L21 8L21 9L20 9L20 10L21 10L21 11L19 11L19 8L20 8L20 7L21 7L21 5L16 5L16 4L17 4L17 3L13 3L13 4L11 4L11 5L10 5L10 4L9 4L9 3L10 3L10 2L11 2L11 0ZM12 0L12 2L13 2L13 0ZM16 0L16 1L14 1L14 2L19 2L19 0L18 0L18 1L17 1L17 0ZM20 0L20 1L21 1L21 0ZM9 1L9 2L10 2L10 1ZM20 2L20 3L21 3L21 2ZM13 4L13 5L11 5L11 7L10 7L10 6L9 6L9 7L10 7L10 8L9 8L9 9L11 9L11 10L10 10L10 14L11 14L11 15L13 15L13 16L14 16L14 17L15 17L15 16L16 16L16 18L18 18L18 17L17 17L17 16L18 16L18 15L21 15L21 19L20 19L20 18L19 18L19 19L18 19L18 20L17 20L17 19L15 19L15 18L14 18L14 19L15 19L15 20L17 20L17 22L19 22L19 23L15 23L15 22L16 22L16 21L15 21L15 22L14 22L14 23L15 23L15 24L19 24L19 26L20 26L20 27L22 27L22 28L25 28L25 26L24 26L24 27L23 27L23 25L21 25L21 26L20 26L20 24L19 24L19 23L20 23L20 22L19 22L19 21L20 21L20 20L21 20L21 19L22 19L22 20L24 20L24 19L25 19L25 21L26 21L26 22L25 22L25 23L26 23L26 22L27 22L27 21L26 21L26 20L28 20L28 19L25 19L25 16L24 16L24 15L26 15L26 14L24 14L24 12L23 12L23 13L21 13L21 12L22 12L22 11L21 11L21 12L19 12L19 11L17 11L17 10L18 10L18 8L19 8L19 7L20 7L20 6L19 6L19 7L18 7L18 6L17 6L17 7L16 7L16 6L15 6L15 4ZM13 5L13 6L12 6L12 7L11 7L11 8L12 8L12 9L14 9L14 10L12 10L12 11L14 11L14 12L15 12L15 13L14 13L14 14L13 14L13 15L15 15L15 14L16 14L16 15L17 15L17 14L16 14L16 12L17 12L17 13L19 13L19 14L21 14L21 15L22 15L22 16L23 16L23 15L24 15L24 14L23 14L23 15L22 15L22 14L21 14L21 13L19 13L19 12L17 12L17 11L16 11L16 10L15 10L15 9L17 9L17 8L15 8L15 6L14 6L14 5ZM13 6L13 8L14 8L14 6ZM23 8L23 9L24 9L24 8ZM25 8L25 10L26 10L26 12L27 12L27 10L28 10L28 8L27 8L27 10L26 10L26 8ZM0 10L0 12L1 12L1 10ZM14 10L14 11L15 11L15 10ZM28 11L28 12L29 12L29 11ZM6 13L6 14L5 14L5 15L6 15L6 14L7 14L7 13ZM11 13L11 14L12 14L12 13ZM19 16L19 17L20 17L20 16ZM8 17L8 18L9 18L9 17ZM23 18L23 19L24 19L24 18ZM6 19L6 20L7 20L7 19ZM19 19L19 20L18 20L18 21L19 21L19 20L20 20L20 19ZM21 21L21 24L24 24L24 21ZM22 22L22 23L23 23L23 22ZM13 25L13 26L12 26L12 27L13 27L13 28L14 28L14 27L15 27L15 26L14 26L14 25ZM16 25L16 26L18 26L18 25ZM13 26L13 27L14 27L14 26ZM0 0L7 0L7 7L0 7ZM1 1L1 6L6 6L6 1ZM2 2L5 2L5 5L2 5ZM22 0L29 0L29 7L22 7ZM23 1L23 6L28 6L28 1ZM24 2L27 2L27 5L24 5ZM0 22L7 22L7 29L0 29ZM1 23L1 28L6 28L6 23ZM2 24L5 24L5 27L2 27Z" fill="#000000"/></g></g></svg>
